<svg id="Layer_1" enable-background="new 0 0 64 64" height="512" viewBox="0 0 64 64" width="512" xmlns="http://www.w3.org/2000/svg"><g><path d="m50.811 48.915c-.361 0-.728-.098-1.058-.304-3.383-2.113-7.503-3.41-12.966-4.083-8.494-1.047-16.7.439-22.521 4.083-.934.586-2.169.302-2.756-.634-.586-.937-.302-2.17.635-2.756 6.585-4.121 15.743-5.821 25.131-4.662 6.063.747 10.7 2.228 14.596 4.661.937.585 1.222 1.819.637 2.756-.379.605-1.031.938-1.698.939z"/></g><g><path d="m31.528 23.799c-7.301 0-14.153-1.746-19.383-5.019-.937-.586-1.221-1.82-.635-2.756.587-.937 1.822-1.221 2.756-.634 5.822 3.643 14.032 5.129 22.52 4.083 5.464-.674 9.584-1.972 12.967-4.084.939-.586 2.172-.3 2.756.637.585.937.3 2.17-.637 2.755-3.896 2.432-8.533 3.914-14.596 4.662-1.931.239-3.855.356-5.748.356z"/></g><g><path d="m32.077 57.986c-2.355 0-4.676-.988-6.708-2.857-3.508-3.225-5.127-7.802-6.146-11.429-1.048-3.728-1.528-7.9-1.471-12.756.052-4.381.774-8.777 2.091-12.71 1.707-5.104 4.034-8.579 7.113-10.623 1.584-1.051 3.33-1.608 5.051-1.61 4.479.005 7.515 3.476 8.926 5.543 2.198 3.221 3.677 7.138 4.652 12.327 1.661 8.846.628 18.119-2.837 25.439-1.451 3.066-4.051 6.994-8.192 8.294-.808.253-1.642.382-2.479.382zm-.07-47.986c-.929.001-1.911.327-2.839.943-2.309 1.532-4.118 4.331-5.532 8.559-1.186 3.545-1.837 7.518-1.884 11.489-.054 4.469.379 8.272 1.322 11.627.876 3.118 2.236 7.023 5.002 9.567 1.677 1.541 3.574 2.139 5.281 1.603 2.763-.867 4.665-3.844 5.775-6.188 3.111-6.575 4.03-14.955 2.521-22.99-.869-4.626-2.148-8.062-4.025-10.811-.778-1.142-2.885-3.796-5.621-3.799z"/></g><g><path d="m32.009 58c-1.104 0-2-.896-2-2v-48c0-1.104.896-2 2-2s2 .896 2 2v48c0 1.104-.896 2-2 2z"/></g><g><path d="m56.009 34h-48c-1.104 0-2-.896-2-2s.896-2 2-2h48c1.104 0 2 .896 2 2s-.896 2-2 2z"/></g><g><path d="m31.942 57.99c-.001 0-.001 0-.002 0-2.273 0-4.528-.296-6.701-.881-9.363-2.519-16.696-10.276-18.68-19.763-2.02-9.665 1.711-19.825 9.505-25.884 4.507-3.503 10.19-5.433 16.004-5.433 4.025 0 8.022.936 11.56 2.705 8.735 4.371 14.381 13.503 14.381 23.266 0 7.966-3.759 15.644-10.055 20.538-4.522 3.516-10.21 5.452-16.012 5.452zm.125-47.961c-4.929 0-9.741 1.63-13.549 4.591-6.597 5.127-9.754 13.727-8.044 21.907 1.678 8.025 7.882 14.588 15.804 16.719 1.834.493 3.739.744 5.663.744h.001c4.918 0 9.732-1.637 13.557-4.61 5.328-4.142 8.51-10.64 8.51-17.38 0-8.261-4.777-15.989-12.171-19.688-2.984-1.493-6.363-2.283-9.771-2.283z"/></g></svg>